# xmcd CD database file
#
# Track frame offsets:
#	182
#	12870
#	22290
#	36065
#	54537
#	66487
#	77220
#	85572
#	97625
#	110387
#	126095
#	135970
#
# Disc length: 1923 seconds
#
# Revision: 1
# Processed by: cddbd v1.5.1PL0 Copyright (c) Steve Scherf et al.
# Submitted via: CDex 1.51
#
DISCID=8f07810c
DTITLE=Rodrigo - Bairro alto...
DYEAR=2000
DGENRE=Pop
TTITLE0=Cais do Dodre
TTITLE1=Coentros e Rabanetes
TTITLE2=Fado Do 31
TTITLE3=A Ultima Tourada Real em Salvaterra
TTITLE4=Sem Ar de Rale
TTITLE5=As Ginjas com Elas
TTITLE6=Bairo Alto
TTITLE7=O Cantar da Minha Gente
TTITLE8=Sol da Ribeira
TTITLE9=O Ardinita
TTITLE10=Raminhos de Violetas
TTITLE11=Ha Mais Mares que Marinheiros
EXTD=YEAR: 2000
EXTT0=
EXTT1=
EXTT2=
EXTT3=
EXTT4=
EXTT5=
EXTT6=
EXTT7=
EXTT8=
EXTT9=
EXTT10=
EXTT11=
PLAYORDER=
